<mxfile host="app.diagrams.net" modified="2024-04-24T02:43:20.974Z" agent="Mozilla/5.0 (Windows NT 10.0; Win64; x64) AppleWebKit/537.36 (KHTML, like Gecko) Chrome/123.0.0.0 Safari/537.36 Edg/123.0.0.0" etag="2ywJc4q0DpTqkGOr2klZ" version="24.2.8" type="device">
  <diagram name="페이지-1" id="iT6TVpmDAg7IH4rJmbgD">
    <mxGraphModel dx="1300" dy="778" grid="1" gridSize="10" guides="1" tooltips="1" connect="1" arrows="1" fold="1" page="1" pageScale="1" pageWidth="827" pageHeight="1169" math="0" shadow="0">
      <root>
        <mxCell id="0" />
        <mxCell id="1" parent="0" />
        <mxCell id="poeTF7FWm4wz9lxNpJVm-1" value="Entity" style="rounded=0;whiteSpace=wrap;html=1;" vertex="1" parent="1">
          <mxGeometry x="10" y="80" width="120" height="60" as="geometry" />
        </mxCell>
        <mxCell id="poeTF7FWm4wz9lxNpJVm-2" value="개체(Entity):세상의 사물이나 개념을 나타낸 것" style="text;html=1;align=center;verticalAlign=middle;resizable=0;points=[];autosize=1;strokeColor=none;fillColor=none;" vertex="1" parent="1">
          <mxGeometry x="130" y="110" width="270" height="30" as="geometry" />
        </mxCell>
        <mxCell id="poeTF7FWm4wz9lxNpJVm-3" value="Attribute" style="ellipse;whiteSpace=wrap;html=1;" vertex="1" parent="1">
          <mxGeometry x="10" y="150" width="120" height="80" as="geometry" />
        </mxCell>
        <mxCell id="poeTF7FWm4wz9lxNpJVm-4" value="속성(Attribute):개체가 가지고 있는 특성" style="text;html=1;align=center;verticalAlign=middle;resizable=0;points=[];autosize=1;strokeColor=none;fillColor=none;" vertex="1" parent="1">
          <mxGeometry x="150" y="175" width="230" height="30" as="geometry" />
        </mxCell>
        <mxCell id="poeTF7FWm4wz9lxNpJVm-8" value="Relationship" style="rhombus;whiteSpace=wrap;html=1;" vertex="1" parent="1">
          <mxGeometry x="10" y="260" width="140" height="80" as="geometry" />
        </mxCell>
        <mxCell id="poeTF7FWm4wz9lxNpJVm-9" value="관계(Relationship):개체와 개체 간의 관계" style="text;html=1;align=center;verticalAlign=middle;resizable=0;points=[];autosize=1;strokeColor=none;fillColor=none;" vertex="1" parent="1">
          <mxGeometry x="150" y="285" width="240" height="30" as="geometry" />
        </mxCell>
        <mxCell id="poeTF7FWm4wz9lxNpJVm-10" value="ER다이어그램" style="text;html=1;align=center;verticalAlign=middle;resizable=0;points=[];autosize=1;strokeColor=none;fillColor=none;" vertex="1" parent="1">
          <mxGeometry x="10" y="489" width="100" height="30" as="geometry" />
        </mxCell>
        <mxCell id="poeTF7FWm4wz9lxNpJVm-11" value="직원" style="rounded=0;whiteSpace=wrap;html=1;" vertex="1" parent="1">
          <mxGeometry x="70" y="531" width="120" height="60" as="geometry" />
        </mxCell>
        <mxCell id="poeTF7FWm4wz9lxNpJVm-13" value="전화번호" style="ellipse;whiteSpace=wrap;html=1;" vertex="1" parent="1">
          <mxGeometry x="210" y="431" width="120" height="80" as="geometry" />
        </mxCell>
        <mxCell id="poeTF7FWm4wz9lxNpJVm-14" value="직급" style="ellipse;whiteSpace=wrap;html=1;" vertex="1" parent="1">
          <mxGeometry x="270" y="591" width="120" height="80" as="geometry" />
        </mxCell>
        <mxCell id="poeTF7FWm4wz9lxNpJVm-15" value="이름" style="ellipse;whiteSpace=wrap;html=1;" vertex="1" parent="1">
          <mxGeometry x="160" y="631" width="120" height="80" as="geometry" />
        </mxCell>
        <mxCell id="poeTF7FWm4wz9lxNpJVm-16" value="직원번호" style="ellipse;whiteSpace=wrap;html=1;" vertex="1" parent="1">
          <mxGeometry x="10" y="631" width="120" height="80" as="geometry" />
        </mxCell>
        <mxCell id="poeTF7FWm4wz9lxNpJVm-17" value="" style="endArrow=none;html=1;rounded=0;entryX=-0.025;entryY=0.413;entryDx=0;entryDy=0;entryPerimeter=0;endFill=0;startArrow=none;startFill=0;" edge="1" parent="1" target="poeTF7FWm4wz9lxNpJVm-13">
          <mxGeometry width="50" height="50" relative="1" as="geometry">
            <mxPoint x="160" y="529" as="sourcePoint" />
            <mxPoint x="210" y="479" as="targetPoint" />
          </mxGeometry>
        </mxCell>
        <mxCell id="poeTF7FWm4wz9lxNpJVm-18" value="" style="endArrow=none;html=1;rounded=0;entryX=0;entryY=0;entryDx=0;entryDy=0;endFill=0;startArrow=none;startFill=0;" edge="1" parent="1" target="poeTF7FWm4wz9lxNpJVm-14">
          <mxGeometry width="50" height="50" relative="1" as="geometry">
            <mxPoint x="190" y="569" as="sourcePoint" />
            <mxPoint x="267" y="562" as="targetPoint" />
          </mxGeometry>
        </mxCell>
        <mxCell id="poeTF7FWm4wz9lxNpJVm-20" value="" style="endArrow=none;html=1;rounded=0;entryX=0.383;entryY=-0.037;entryDx=0;entryDy=0;entryPerimeter=0;endFill=0;startArrow=none;startFill=0;" edge="1" parent="1" target="poeTF7FWm4wz9lxNpJVm-15">
          <mxGeometry width="50" height="50" relative="1" as="geometry">
            <mxPoint x="150" y="591" as="sourcePoint" />
            <mxPoint x="190" y="625" as="targetPoint" />
          </mxGeometry>
        </mxCell>
        <mxCell id="poeTF7FWm4wz9lxNpJVm-23" value="" style="endArrow=none;html=1;rounded=0;entryX=0.425;entryY=0.038;entryDx=0;entryDy=0;entryPerimeter=0;exitX=0;exitY=1;exitDx=0;exitDy=0;endFill=0;startArrow=none;startFill=0;" edge="1" parent="1" source="poeTF7FWm4wz9lxNpJVm-11" target="poeTF7FWm4wz9lxNpJVm-16">
          <mxGeometry width="50" height="50" relative="1" as="geometry">
            <mxPoint x="32" y="594" as="sourcePoint" />
            <mxPoint x="55.960000000000036" y="622.115" as="targetPoint" />
          </mxGeometry>
        </mxCell>
        <mxCell id="poeTF7FWm4wz9lxNpJVm-27" value="부서" style="rounded=0;whiteSpace=wrap;html=1;" vertex="1" parent="1">
          <mxGeometry x="580" y="451" width="120" height="60" as="geometry" />
        </mxCell>
        <mxCell id="poeTF7FWm4wz9lxNpJVm-28" value="부서번호" style="ellipse;whiteSpace=wrap;html=1;" vertex="1" parent="1">
          <mxGeometry x="520" y="571" width="120" height="80" as="geometry" />
        </mxCell>
        <mxCell id="poeTF7FWm4wz9lxNpJVm-30" value="부서명" style="ellipse;whiteSpace=wrap;html=1;" vertex="1" parent="1">
          <mxGeometry x="650" y="531" width="120" height="80" as="geometry" />
        </mxCell>
        <mxCell id="poeTF7FWm4wz9lxNpJVm-31" value="" style="endArrow=none;html=1;rounded=0;entryX=0.5;entryY=0;entryDx=0;entryDy=0;endFill=0;startArrow=none;startFill=0;" edge="1" parent="1" target="poeTF7FWm4wz9lxNpJVm-28">
          <mxGeometry width="50" height="50" relative="1" as="geometry">
            <mxPoint x="610" y="511" as="sourcePoint" />
            <mxPoint x="660" y="461" as="targetPoint" />
          </mxGeometry>
        </mxCell>
        <mxCell id="poeTF7FWm4wz9lxNpJVm-33" value="" style="endArrow=none;html=1;rounded=0;entryX=0.233;entryY=0.038;entryDx=0;entryDy=0;exitX=0.633;exitY=1;exitDx=0;exitDy=0;exitPerimeter=0;entryPerimeter=0;endFill=0;startArrow=none;startFill=0;" edge="1" parent="1" source="poeTF7FWm4wz9lxNpJVm-27" target="poeTF7FWm4wz9lxNpJVm-30">
          <mxGeometry width="50" height="50" relative="1" as="geometry">
            <mxPoint x="620" y="521" as="sourcePoint" />
            <mxPoint x="590" y="581" as="targetPoint" />
          </mxGeometry>
        </mxCell>
        <mxCell id="poeTF7FWm4wz9lxNpJVm-34" value="소속" style="rhombus;whiteSpace=wrap;html=1;" vertex="1" parent="1">
          <mxGeometry x="380" y="511" width="140" height="80" as="geometry" />
        </mxCell>
        <mxCell id="poeTF7FWm4wz9lxNpJVm-35" value="" style="endArrow=none;html=1;rounded=0;exitX=0;exitY=0.75;exitDx=0;exitDy=0;endFill=0;startArrow=none;startFill=0;" edge="1" parent="1" source="poeTF7FWm4wz9lxNpJVm-27" target="poeTF7FWm4wz9lxNpJVm-34">
          <mxGeometry width="50" height="50" relative="1" as="geometry">
            <mxPoint x="537" y="501" as="sourcePoint" />
            <mxPoint x="587" y="451" as="targetPoint" />
          </mxGeometry>
        </mxCell>
        <mxCell id="poeTF7FWm4wz9lxNpJVm-36" value="" style="endArrow=none;html=1;rounded=0;exitX=1;exitY=0.5;exitDx=0;exitDy=0;endFill=0;startArrow=none;startFill=0;" edge="1" parent="1" source="poeTF7FWm4wz9lxNpJVm-11" target="poeTF7FWm4wz9lxNpJVm-34">
          <mxGeometry width="50" height="50" relative="1" as="geometry">
            <mxPoint x="190" y="573" as="sourcePoint" />
            <mxPoint x="100" y="611" as="targetPoint" />
          </mxGeometry>
        </mxCell>
      </root>
    </mxGraphModel>
  </diagram>
</mxfile>
